<svg width="100" height="100" viewBox="0 0 100 100" fill="none" xmlns="http://www.w3.org/2000/svg">
  <rect width="100" height="100" rx="10" fill="#1E1E1E"/>
  <path d="M20 50C20 33.4315 33.4315 20 50 20V20C66.5685 20 80 33.4315 80 50V50C80 66.5685 66.5685 80 50 80V80C33.4315 80 20 66.5685 20 50V50Z" stroke="#6366F1" stroke-width="4"/>
  <path d="M35 50C35 41.7157 41.7157 35 50 35C58.2843 35 65 41.7157 65 50C65 58.2843 58.2843 65 50 65C41.7157 65 35 58.2843 35 50Z" stroke="#60A5FA" stroke-width="4"/>
  <circle cx="50" cy="50" r="5" fill="#F472B6"/>
</svg>